<?xml version="1.0" encoding="UTF-8"?>
<svg version="1.1" xmlns="http://www.w3.org/2000/svg" width="1366" height="768">
<path d="M0 0 C3.25580336 0.82735916 6.52826522 1.42675949 9.8371582 2.00170898 C18.04553855 3.59965188 25.76997794 6.25001796 33.6550293 8.99438477 C36.46106835 9.94216392 39.30232659 10.75016881 42.1496582 11.56420898 C73.01625498 21.01395756 102.44081768 38.93061203 127.1105957 59.52514648 C129.73567034 61.70876713 132.40479386 63.82655035 135.0871582 65.93920898 C139.7540154 69.67122254 143.81764474 73.60852451 147.6496582 78.18920898 C149.53567391 80.42945099 151.2100269 82.08750394 153.5246582 83.93920898 C157.8008198 87.36455807 161.00498259 91.74829648 164.38793945 96.02368164 C165.81752339 97.82173135 167.26350172 99.60571402 168.7121582 101.38842773 C182.94563347 118.94891931 182.94563347 118.94891931 187.7121582 128.68920898 C188.6365699 130.07304216 189.57573156 131.44706983 190.5246582 132.81420898 C193.58851334 137.31495896 195.97077785 142.02518981 198.34106445 146.91967773 C199.40646414 149.0717244 200.5154059 151.08864201 201.7746582 153.12670898 C204.81004068 158.30323263 206.65192573 164.07639617 208.7121582 169.68920898 C209.0524707 170.59928711 209.3927832 171.50936523 209.7434082 172.44702148 C215.31882519 187.50963995 220.29526248 202.53482343 222.7746582 218.43920898 C222.94384766 219.51904053 223.11303711 220.59887207 223.28735352 221.71142578 C229.47420466 262.59053811 227.34345779 304.12674343 214.7121582 343.68920898 C214.49237305 344.39037842 214.27258789 345.09154785 214.04614258 345.81396484 C212.16921701 351.64483612 209.89305073 357.256764 207.4621582 362.87670898 C206.86781982 364.25427368 206.86781982 364.25427368 206.26147461 365.65966797 C196.00258335 389.22621957 182.88901948 412.41760852 165.7121582 431.68920898 C165.1346582 432.49358398 164.5571582 433.29795898 163.9621582 434.12670898 C163.3434082 434.90014648 163.3434082 434.90014648 162.7121582 435.68920898 C162.0521582 435.68920898 161.3921582 435.68920898 160.7121582 435.68920898 C160.4234082 436.28733398 160.1346582 436.88545898 159.8371582 437.50170898 C158.7121582 439.68920898 158.7121582 439.68920898 156.7121582 442.68920898 C156.0521582 442.68920898 155.3921582 442.68920898 154.7121582 442.68920898 C154.7121582 443.34920898 154.7121582 444.00920898 154.7121582 444.68920898 C154.0521582 444.68920898 153.3921582 444.68920898 152.7121582 444.68920898 C152.4852832 445.24608398 152.2584082 445.80295898 152.0246582 446.37670898 C150.33665784 449.35080486 148.24539304 451.40929763 145.7121582 453.68920898 C145.0521582 453.68920898 144.3921582 453.68920898 143.7121582 453.68920898 C143.7121582 454.34920898 143.7121582 455.00920898 143.7121582 455.68920898 C142.4543457 456.99389648 142.4543457 456.99389648 140.5871582 458.56420898 C139.86012695 459.18038086 139.1330957 459.79655273 138.3840332 460.43139648 C137.50231445 461.17647461 136.6205957 461.92155273 135.7121582 462.68920898 C134.61176786 463.64850633 133.51290583 464.60955857 132.4152832 465.57202148 C131.22271073 466.61123991 130.03000174 467.6503017 128.8371582 468.68920898 C128.28527832 469.17502441 127.73339844 469.66083984 127.16479492 470.16137695 C122.27321448 474.39059992 117.04875619 478.04577253 111.7121582 481.68920898 C110.45459717 482.55739258 110.45459717 482.55739258 109.17163086 483.44311523 C98.65139778 490.68197486 88.3097493 497.30859581 76.7121582 502.68920898 C74.39763954 503.87276966 72.08517251 505.06035004 69.7746582 506.25170898 C63.19169185 509.53952272 56.48287743 512.33675472 49.61547852 514.95532227 C47.74118163 515.67801806 45.8788314 516.4314544 44.0168457 517.18530273 C22.10474342 525.94445589 -3.30468063 532.63606621 -26.93237305 533.54858398 C-29.84622897 533.67070135 -32.70268928 533.91774027 -35.60424805 534.19702148 C-43.53628909 534.87318343 -51.45944278 534.84523022 -59.4128418 534.81420898 C-60.19184845 534.81166107 -60.9708551 534.80911316 -61.77346802 534.80648804 C-66.9451954 534.78664247 -72.11636345 534.74325739 -77.2878418 534.68920898 C-78.25157715 534.68195801 -79.2153125 534.67470703 -80.20825195 534.66723633 C-113.56658921 534.26351491 -150.89417608 524.87846796 -180.52905273 509.57275391 C-182.20722862 508.7297058 -183.93500727 507.9876385 -185.6628418 507.25170898 C-189.48096025 505.60596827 -193.15988567 503.76919926 -196.8581543 501.87280273 C-199.29548848 500.68548399 -201.75948404 499.665461 -204.2878418 498.68920898 C-204.2878418 498.02920898 -204.2878418 497.36920898 -204.2878418 496.68920898 C-204.85374023 496.57834961 -205.41963867 496.46749023 -206.00268555 496.35327148 C-208.60530649 495.59695429 -210.54329526 494.48568411 -212.8503418 493.06420898 C-213.72045898 492.53053711 -214.59057617 491.99686523 -215.48706055 491.44702148 C-219.28990924 489.06029636 -223.07334533 486.64436413 -226.8425293 484.20483398 C-229.16498165 482.6618704 -229.16498165 482.6618704 -231.4206543 481.86108398 C-234.37590937 480.00632139 -235.07898997 477.92390424 -236.2878418 474.68920898 C-236.72705687 471.78112767 -236.76315232 468.93913285 -236.7253418 466.00170898 C-236.71849365 465.17227783 -236.71164551 464.34284668 -236.70458984 463.48828125 C-236.18077985 442.69086654 -228.44867434 421.79181933 -222.05834961 402.18237305 C-221.28194671 399.79609037 -220.51510539 397.40686923 -219.7487793 395.01733398 C-217.23328592 387.23335001 -214.55509273 379.63078095 -211.31079102 372.11254883 C-210.11106312 369.27042494 -209.18383399 366.40826575 -208.3503418 363.43920898 C-204.79903326 351.52605446 -200.08725766 340.12509139 -195.19042969 328.71533203 C-192.56859058 322.53487609 -190.38159808 316.29832219 -188.39331055 309.88842773 C-187.27486886 306.65166541 -185.88518008 303.71454024 -184.2878418 300.68920898 C-190.69198104 299.73450494 -196.91643932 299.55263688 -203.38549805 299.57568359 C-204.46931259 299.57553757 -205.55312714 299.57539154 -206.66978455 299.57524109 C-210.2299911 299.5759343 -213.79014445 299.5836989 -217.3503418 299.59155273 C-219.82755505 299.59341902 -222.30476867 299.59484193 -224.78198242 299.59584045 C-231.28551258 299.59964907 -237.78902021 299.60946518 -244.2925415 299.62054443 C-250.93550351 299.6307942 -257.57846772 299.6353457 -264.22143555 299.64038086 C-277.24358054 299.65108897 -290.26570997 299.66795181 -303.2878418 299.68920898 C-303.5157843 300.29328583 -303.74372681 300.89736267 -303.97857666 301.51974487 C-305.02241831 304.28270523 -306.06916756 307.04455538 -307.1159668 309.80639648 C-307.4744873 310.75667725 -307.83300781 311.70695801 -308.20239258 312.68603516 C-310.34255932 318.325399 -312.62904682 323.83695561 -315.2097168 329.29077148 C-316.77488907 332.77271271 -317.99563877 336.36052119 -319.2644043 339.95874023 C-320.28011648 342.66859831 -321.43352169 345.25755246 -322.6628418 347.87670898 C-325.0456684 352.99320783 -327.04567074 358.20250195 -328.96899414 363.50439453 C-332.88271699 374.21962236 -337.5481821 384.5979544 -342.3503418 394.93920898 C-342.86661133 396.05811523 -343.38288086 397.17702148 -343.91479492 398.32983398 C-346.01798358 402.87379318 -348.12051246 407.40709117 -350.40893555 411.86108398 C-352.26703879 415.52046336 -353.74658638 419.29076011 -355.24291992 423.10961914 C-357.00012147 427.44760783 -359.01314068 431.65841686 -361.0378418 435.87670898 C-361.47539795 436.7894458 -361.9129541 437.70218262 -362.36376953 438.64257812 C-367.43060539 449.14218287 -372.75352875 459.43379379 -378.8503418 469.37670898 C-379.53225586 470.49432617 -380.21416992 471.61194336 -380.91674805 472.76342773 C-383.82810203 476.35585629 -386.10945785 477.74975432 -390.2878418 479.68920898 C-395.58195944 479.39509134 -395.58195944 479.39509134 -397.2878418 477.68920898 C-398.32719542 469.41010429 -395.9362791 462.03864538 -393.6003418 454.18920898 C-385.30376272 424.99407795 -380.30346773 393.61757823 -387.2878418 363.68920898 C-387.57788086 362.33375977 -387.57788086 362.33375977 -387.8737793 360.95092773 C-392.66686961 341.93418628 -405.93973629 329.13196168 -420.5144043 317.08764648 C-423.82615756 314.22367958 -424.1762522 313.67491705 -424.6628418 309.37670898 C-424.2878418 305.68920898 -424.2878418 305.68920898 -422.3503418 303.00170898 C-415.9061688 298.1357008 -408.8068367 296.14994691 -401.1003418 294.06420898 C-400.34736816 293.85795898 -399.59439453 293.65170898 -398.81860352 293.43920898 C-384.39241861 289.70458831 -369.47587799 288.9430587 -354.67407227 287.8293457 C-351.16325311 287.56424004 -347.65329772 287.28930694 -344.14331055 287.01342773 C-341.8764285 286.83966207 -339.60950274 286.66646564 -337.3425293 286.49389648 C-336.31094696 286.41267548 -335.27936462 286.33145447 -334.21652222 286.24777222 C-327.22877866 285.73068811 -320.29356889 285.59917157 -313.2878418 285.68920898 C-312.67489258 283.81942383 -312.67489258 283.81942383 -312.04956055 281.91186523 C-310.17163098 276.27807653 -308.13303625 270.70607754 -306.1003418 265.12670898 C-300.16325883 248.72655395 -294.58888484 232.20358354 -289.4831543 215.52514648 C-288.68566128 212.931641 -287.84379206 210.35869058 -286.9675293 207.79077148 C-269.58424871 157.60107614 -269.58424871 157.60107614 -273.1706543 106.40405273 C-274.44058444 103.96918666 -275.57418518 102.07152503 -278.0378418 100.75170898 C-278.7803418 100.73108398 -279.5228418 100.71045898 -280.2878418 100.68920898 C-281.4840918 100.60670898 -282.6803418 100.52420898 -283.9128418 100.43920898 C-304.51594549 100.89452619 -321.87822682 119.70406424 -335.33081055 133.54077148 C-339.60412839 138.03109908 -343.47582937 142.80506806 -347.2878418 147.68920898 C-348.203492 148.83845708 -349.12021341 149.98685228 -350.0378418 151.13452148 C-357.83096385 160.91407359 -364.90459851 170.89913356 -371.3815918 181.61108398 C-372.95727103 184.15541848 -374.6073446 186.57263843 -376.3503418 189.00170898 C-382.564937 198.289267 -387.27397257 207.49465373 -385.2878418 218.68920898 C-386.89364225 221.96028398 -388.23413962 223.91649405 -391.1628418 226.06420898 C-394.02598758 226.90631069 -396.32032815 227.00490193 -399.2878418 226.68920898 C-401.42834037 225.09699838 -402.19008667 224.18470495 -402.71044922 221.54711914 C-402.69798463 214.98024859 -401.31455603 210.00916656 -398.6003418 204.06420898 C-398.09083984 202.87311523 -398.09083984 202.87311523 -397.57104492 201.65795898 C-395.52361323 196.98904934 -393.1642416 192.69219508 -390.39697266 188.41333008 C-389.12365192 186.4339792 -388.00766887 184.39684997 -386.9128418 182.31420898 C-384.08425719 177.16088141 -380.7068231 172.4624621 -377.2878418 167.68920898 C-376.20441465 166.10593984 -375.12108223 164.52260588 -374.0378418 162.93920898 C-366.94023126 152.83145111 -359.2080193 143.35270409 -350.76049805 134.34936523 C-348.75862282 132.19568905 -346.85596471 130.00939915 -344.9753418 127.75170898 C-331.09018429 111.84989765 -309.81960244 93.09866038 -288.2878418 89.68920898 C-286.14317786 89.54553479 -283.99717614 89.42064213 -281.8503418 89.31420898 C-277.45459307 89.13271246 -277.45459307 89.13271246 -274.0378418 86.56420898 C-273.4603418 85.61545898 -272.8828418 84.66670898 -272.2878418 83.68920898 C-271.15164332 82.63456931 -269.97995194 81.61771111 -268.7878418 80.62670898 C-264.48378417 76.9605886 -260.53421182 72.99571823 -256.58862305 68.95263672 C-253.64683398 65.96048125 -250.69093319 63.15189516 -247.2878418 60.68920898 C-246.6278418 60.68920898 -245.9678418 60.68920898 -245.2878418 60.68920898 C-245.2878418 60.02920898 -245.2878418 59.36920898 -245.2878418 58.68920898 C-243.41674805 57.20874023 -243.41674805 57.20874023 -240.8503418 55.50170898 C-237.47358112 53.21117902 -234.21139608 50.87815397 -231.0378418 48.31420898 C-222.43109739 41.53868679 -212.94974477 35.81890709 -203.2878418 30.68920898 C-201.99714316 29.98148454 -200.70681497 29.2730843 -199.41674805 28.56420898 C-192.001281 24.52338506 -184.68390715 20.79049032 -176.70581055 17.95483398 C-173.63645223 16.81829445 -170.64687707 15.57877432 -167.63549805 14.29858398 C-161.6851494 11.80699311 -155.67941169 9.65802337 -149.5378418 7.68920898 C-148.47525146 7.34817139 -147.41266113 7.00713379 -146.31787109 6.65576172 C-133.23349937 2.57888001 -119.81587828 -0.16348364 -106.2878418 -2.31079102 C-105.26243286 -2.4868689 -105.26243286 -2.4868689 -104.21630859 -2.66650391 C-71.00518434 -8.17411384 -32.70201462 -8.53061532 0 0 Z M-80.2878418 11.68920898 C-81.70396973 11.72827458 -83.12187728 11.73380629 -84.5378418 11.68920898 C-88.1015028 11.40970049 -88.1015028 11.40970049 -90.2878418 12.68920898 C-91.91059361 12.8239393 -93.53650383 12.92108316 -95.1628418 13.00170898 C-103.41401548 13.62649738 -111.4311298 15.36823886 -119.5078125 17.1015625 C-121.51071524 17.52493888 -123.51765248 17.92938683 -125.52685547 18.32177734 C-134.23123789 20.06948606 -142.48076502 22.55694065 -150.8503418 25.50170898 C-152.06141602 25.91485352 -153.27249023 26.32799805 -154.52026367 26.75366211 C-165.66217741 30.62677513 -176.21494542 35.55129746 -186.7253418 40.87670898 C-187.37954102 41.20606445 -188.03374023 41.53541992 -188.70776367 41.87475586 C-189.98222052 42.51644935 -191.25585932 43.15977085 -192.52856445 43.80493164 C-194.12386998 44.60679073 -195.7306685 45.38568231 -197.33862305 46.16186523 C-200.6998767 47.90259395 -203.87023953 49.87480005 -207.0378418 51.93920898 C-207.65272461 52.33833496 -208.26760742 52.73746094 -208.90112305 53.14868164 C-225.74386762 64.13250698 -241.11925569 76.40672749 -255.2878418 90.68920898 C-257.95450846 93.35587565 -260.62117513 96.02254232 -263.2878418 98.68920898 C-262.88952148 99.61926758 -262.88952148 99.61926758 -262.4831543 100.56811523 C-254.29406136 121.10062197 -257.71844919 141.83878499 -261.75268555 162.88452148 C-262.25053579 165.49369282 -262.72514343 168.10596809 -263.1940918 170.72045898 C-269.67113715 205.92302349 -282.36029479 240.03529165 -294.71191406 273.53442383 C-295.03345459 274.41050293 -295.35499512 275.28658203 -295.6862793 276.18920898 C-296.11432861 277.34936523 -296.11432861 277.34936523 -296.55102539 278.53295898 C-297.24735553 280.5707283 -297.77898221 282.59835197 -298.2878418 284.68920898 C-297.36918335 284.69729584 -296.4505249 284.70538269 -295.50402832 284.7137146 C-286.68420941 284.79289261 -277.86451842 284.88050776 -269.04486847 284.97673607 C-264.51472282 285.02588859 -259.98459202 285.07219641 -255.4543457 285.11108398 C-234.78549582 285.29067629 -214.22927499 285.7807468 -193.61010742 287.27368164 C-188.81666426 287.61633395 -184.09190119 287.78136421 -179.2878418 287.68920898 C-175.64466465 279.53727713 -172.35067245 271.35566518 -169.46899414 262.90429688 C-167.59154573 257.42164189 -165.47539014 252.05505068 -163.2878418 246.68920898 C-158.94322246 236.02958116 -154.74212672 225.36717407 -151.00561523 214.47729492 C-148.70243852 207.79107165 -146.23423067 201.17570315 -143.7253418 194.56420898 C-140.74404096 186.69690471 -137.9240598 178.8054567 -135.32373047 170.80444336 C-133.54063171 165.34507926 -131.52929642 160.00318737 -129.3659668 154.68139648 C-128.31180852 151.75572532 -127.53486165 148.82629837 -126.81030273 145.80395508 C-125.91770136 142.19100503 -124.84644046 138.63136568 -123.7878418 135.06420898 C-123.57514648 134.33975586 -123.36245117 133.61530273 -123.14331055 132.86889648 C-122.22975214 129.77512812 -121.30036585 126.7238078 -120.2019043 123.68920898 C-119.05335268 119.91960369 -118.59382349 116.22130534 -118.1628418 112.31420898 C-118.03329102 111.21012695 -118.03329102 111.21012695 -117.90112305 110.08374023 C-117.69102295 108.28621716 -117.48863412 106.48779557 -117.2878418 104.68920898 C-118.4222168 104.54483398 -119.5565918 104.40045898 -120.7253418 104.25170898 C-124.2878418 103.68920898 -124.2878418 103.68920898 -125.2878418 102.68920898 C-125.6003418 99.87670898 -125.6003418 99.87670898 -125.2878418 96.68920898 C-123.42074269 94.38645342 -121.93136439 93.01097028 -119.2878418 91.68920898 C-119.2878418 91.02920898 -119.2878418 90.36920898 -119.2878418 89.68920898 C-117.70537473 89.60766965 -116.12167907 89.54977341 -114.5378418 89.50170898 C-113.21526367 89.44950195 -113.21526367 89.44950195 -111.8659668 89.39624023 C-108.6277331 89.76422134 -107.44169572 90.22003861 -105.2878418 92.68920898 C-103.50957498 99.56931554 -104.98691388 105.51070265 -106.6003418 112.31420898 C-106.9396875 113.83014648 -106.9396875 113.83014648 -107.28588867 115.37670898 C-108.3960668 120.25253452 -109.67319756 124.95368265 -111.2878418 129.68920898 C-111.9071593 131.62040337 -112.52291197 133.55274381 -113.13549805 135.48608398 C-120.59597282 158.93767236 -128.71196825 182.13553988 -136.9753418 205.31420898 C-137.45236542 206.65325287 -137.45236542 206.65325287 -137.93902588 208.01934814 C-143.09595984 222.48494259 -148.33798342 236.9040356 -154.07797241 251.1502533 C-156.94796546 258.28007629 -159.63074478 265.47785123 -162.2878418 272.68920898 C-162.5348584 273.35500977 -162.781875 274.02081055 -163.03637695 274.70678711 C-163.75079687 276.63642823 -164.45804656 278.56853458 -165.1628418 280.50170898 C-165.57276367 281.6219043 -165.98268555 282.74209961 -166.4050293 283.89624023 C-167.43853512 286.67776512 -167.43853512 286.67776512 -167.2878418 289.68920898 C-166.73136963 289.72361084 -166.17489746 289.7580127 -165.6015625 289.79345703 C-132.30084389 291.98944553 -132.30084389 291.98944553 -119.2878418 298.68920898 C-117.89238827 302.52670618 -118.06742487 304.19087505 -119.7253418 307.93920898 C-120.2409668 308.84670898 -120.7565918 309.75420898 -121.2878418 310.68920898 C-121.2878418 311.34920898 -121.2878418 312.00920898 -121.2878418 312.68920898 C-124.76529379 314.27890132 -127.45226806 315.1038656 -131.2878418 314.68920898 C-133.2878418 312.68920898 -133.2878418 312.68920898 -133.4128418 309.56420898 C-133.3715918 308.61545898 -133.3303418 307.66670898 -133.2878418 306.68920898 C-139.54672605 304.38211235 -145.62746298 302.9355155 -152.2253418 302.00170898 C-153.05485352 301.8721582 -153.88436523 301.74260742 -154.73901367 301.60913086 C-160.62027043 300.7454498 -166.34842729 300.53975494 -172.2878418 300.68920898 C-173.19938101 302.96730863 -174.10979724 305.24583747 -175.01831055 307.52514648 C-175.90789369 309.74226139 -176.80716438 311.95550242 -177.71362305 314.16577148 C-180.76699845 321.6376663 -183.50837004 329.14429871 -186.0144043 336.82202148 C-187.34120878 340.88109106 -188.74130461 344.91245124 -190.1628418 348.93920898 C-190.41018066 349.64070068 -190.65751953 350.34219238 -190.91235352 351.06494141 C-192.26907617 354.88910069 -193.65887162 358.69885657 -195.0847168 362.49780273 C-198.14333568 370.6516709 -200.98248223 378.73622391 -203.27612305 387.14624023 C-204.41165956 391.12281019 -205.70816364 395.02436069 -207.0378418 398.93920898 C-216.07091908 425.34392784 -216.07091908 425.34392784 -221.96264648 452.5690918 C-222.26675233 454.55171581 -222.63816327 456.52368811 -223.0144043 458.49389648 C-223.43560089 462.06993819 -223.52651216 464.30447019 -222.2878418 467.68920898 C-218.7040963 471.13679393 -214.81896394 473.34868944 -210.41088867 475.59790039 C-207.45136494 477.11918271 -204.57002292 478.7689315 -201.6784668 480.41479492 C-200.27266998 481.21068627 -198.86130973 481.99684523 -197.4440918 482.7722168 C-194.76499273 484.23902354 -192.45997676 485.51707403 -190.2878418 487.68920898 C-188.01764549 488.68896851 -185.70636609 489.53199784 -183.3815918 490.39624023 C-180.72953223 491.50461362 -178.23877965 492.72263598 -175.6862793 494.03686523 C-170.07166757 496.87394714 -164.30558275 499.12612336 -158.4128418 501.31420898 C-157.41381836 501.69577148 -156.41479492 502.07733398 -155.38549805 502.47045898 C-149.37956393 504.71784078 -143.40061687 506.52028202 -137.16235352 508.0012207 C-134.4561688 508.64892144 -131.78001969 509.36209926 -129.1003418 510.11108398 C-128.29983398 510.33151367 -127.49932617 510.55194336 -126.67456055 510.77905273 C-125.05035798 511.22830025 -123.42800991 511.68429492 -121.80737305 512.14624023 C-120.62208008 512.46915039 -120.62208008 512.46915039 -119.4128418 512.79858398 C-118.71416992 512.99419922 -118.01549805 513.18981445 -117.2956543 513.39135742 C-115.01602288 513.72953232 -113.46703698 513.38425498 -111.2878418 512.68920898 C-111.2878418 513.34920898 -111.2878418 514.00920898 -111.2878418 514.68920898 C-78.62974059 518.62871686 -47.83278585 519.44084608 -15.10424805 515.66186523 C-14.38781631 515.57949112 -13.67138458 515.497117 -12.9332428 515.4122467 C-7.79160107 514.79963492 -2.96998404 514.01501284 1.8996582 512.25170898 C4.99663441 511.19235051 7.99150599 510.39030521 11.2121582 509.81420898 C22.80030964 507.61893806 33.85715316 503.89348726 44.6027832 499.07983398 C47.18209156 497.92627396 49.75946113 496.87816305 52.3996582 495.87670898 C57.4869091 493.85876613 62.44130096 491.56428567 67.3996582 489.25170898 C68.20814209 488.88005615 69.01662598 488.50840332 69.84960938 488.12548828 C74.28428357 486.03378128 78.229796 483.75291324 82.15478516 480.81640625 C84.30669221 479.25889647 86.59641446 478.07772306 88.9621582 476.87670898 C95.87907396 473.18959273 102.07105674 468.61829856 108.16918945 463.71264648 C109.88705812 462.34574023 111.63886569 461.02058886 113.41918945 459.73608398 C121.97009707 453.4116391 129.51512272 446.19168406 137.0246582 438.68920898 C137.5359024 438.18127808 138.04714661 437.67334717 138.57388306 437.15002441 C147.29361777 428.46367722 155.13655216 419.31100315 162.44262695 409.38842773 C163.52962989 407.93351611 164.67785463 406.5246927 165.8371582 405.12670898 C167.70687716 402.69607435 169.17699096 400.17310238 170.65356445 397.48999023 C171.7121582 395.68920898 171.7121582 395.68920898 174.0871582 392.50170898 C177.04757218 388.47225663 179.12247378 384.05152523 181.2824707 379.55639648 C182.7121582 376.68920898 182.7121582 376.68920898 184.2746582 374.11499023 C185.65993896 371.77732895 186.63803033 369.5425159 187.5871582 367.00170898 C189.30250791 362.56818973 191.32245755 358.39861753 193.5637207 354.20874023 C194.67710074 351.76612076 195.42771055 349.35358584 196.12719727 346.76611328 C196.82153732 344.30085834 197.60830329 341.87377485 198.40356445 339.43920898 C198.70842773 338.50077148 199.01329102 337.56233398 199.32739258 336.59545898 C199.95927918 334.65680483 200.59470216 332.7192998 201.23364258 330.78295898 C202.86861959 325.72876253 204.09049753 320.98220558 204.7121582 315.68920898 C205.01451637 313.9816529 205.32810806 312.27606777 205.6496582 310.57202148 C207.81972791 298.90637574 209.48228536 287.55940469 209.7121582 275.68920898 C209.74325684 274.59640625 209.77435547 273.50360352 209.80639648 272.37768555 C210.37971039 250.66090061 208.66341664 229.92496351 203.7121582 208.68920898 C203.37764648 207.18100586 203.37764648 207.18100586 203.03637695 205.64233398 C201.49743207 199.10889928 199.39130255 193.00682143 196.89575195 186.77905273 C195.85953853 184.07395432 195.02984049 181.41954287 194.2746582 178.62670898 C192.8548688 173.64527645 190.61559854 169.22153942 188.2121582 164.64624023 C186.7121582 161.68920898 186.7121582 161.68920898 185.3293457 158.38842773 C183.47452001 153.98593021 181.16511613 149.85576431 178.8371582 145.68920898 C178.41563477 144.92092773 177.99411133 144.15264648 177.55981445 143.36108398 C174.88640258 138.55384796 171.95429333 134.13071505 168.7121582 129.68920898 C167.98764275 128.46951059 167.27909585 127.24017945 166.5871582 126.00170898 C165.09469098 123.36501688 163.71039372 120.95993116 161.7121582 118.68920898 C161.0521582 118.68920898 160.3921582 118.68920898 159.7121582 118.68920898 C159.39311523 117.6624707 159.39311523 117.6624707 159.06762695 116.61499023 C157.29360046 112.78575149 154.81209995 110.01332523 152.0246582 106.87670898 C151.48373535 106.25868408 150.9428125 105.64065918 150.38549805 105.00390625 C149.31381317 103.78024689 148.23966264 102.55874176 147.1628418 101.33959961 C145.36168035 99.29048292 143.60311296 97.20617031 141.8371582 95.12670898 C139.03438175 91.92936692 136.02329536 89.35251496 132.7121582 86.68920898 C130.24055294 84.27788678 127.83682879 81.82080571 125.4621582 79.31420898 C122.43784657 76.42736606 119.24026586 73.92582511 115.91918945 71.39233398 C114.05317781 69.95236748 112.25039753 68.47330577 110.4621582 66.93920898 C107.9523182 64.88570353 105.49036612 63.34290417 102.7121582 61.68920898 C100.77771228 60.24657135 98.86856087 58.77634497 96.9699707 57.28686523 C94.01042676 55.19265507 90.87073896 53.45870896 87.7121582 51.68920898 C86.63836914 51.06401367 85.56458008 50.43881836 84.45825195 49.79467773 C76.36101756 45.10076736 68.16790193 40.71233074 59.7121582 36.68920898 C59.05828125 36.37483887 58.4044043 36.06046875 57.73071289 35.73657227 C39.99864469 27.28291184 21.35633395 20.86455895 2.0559082 17.14233398 C-0.57286256 16.63410497 -3.19560601 16.09902427 -5.8190918 15.56420898 C-7.70421437 15.18773336 -9.58962737 14.81270877 -11.4753418 14.43920898 C-12.78571411 14.17575684 -12.78571411 14.17575684 -14.12255859 13.90698242 C-18.93375156 12.98435171 -23.36848631 12.61264314 -28.2878418 12.68920898 C-28.9478418 12.35920898 -29.6078418 12.02920898 -30.2878418 11.68920898 C-38.97823082 10.48121277 -47.7792817 10.53250674 -56.53540039 10.55883789 C-58.68081554 10.56425436 -60.82602624 10.5588275 -62.97143555 10.55249023 C-64.35555059 10.55315024 -65.7396655 10.5544298 -67.1237793 10.55639648 C-68.97302002 10.55808838 -68.97302002 10.55808838 -70.85961914 10.55981445 C-74.09451082 10.68191192 -77.10896273 11.10436899 -80.2878418 11.68920898 Z M-403.2878418 306.68920898 C-405.28772741 307.02322793 -407.28765885 307.35697521 -409.2878418 307.68920898 C-407.91872375 310.83818049 -406.41262819 312.73705769 -403.7878418 314.93920898 C-402.87518555 315.72038086 -402.87518555 315.72038086 -401.9440918 316.51733398 C-400.35388359 317.88173895 -400.35388359 317.88173895 -398.2878418 317.68920898 C-398.02358398 318.27444336 -397.75932617 318.85967773 -397.48706055 319.46264648 C-396.24353033 321.77148109 -394.88215405 323.39784341 -393.1003418 325.31420898 C-375.45335261 345.29468435 -370.08209076 368.03066402 -370.1628418 394.12670898 C-370.15704102 395.99552734 -370.15704102 395.99552734 -370.15112305 397.90209961 C-370.15880709 405.2211464 -370.4647467 412.41541077 -371.2878418 419.68920898 C-370.2978418 420.18420898 -370.2978418 420.18420898 -369.2878418 420.68920898 C-360.94642276 402.51658661 -352.75371935 384.30299449 -344.94018555 365.89624023 C-342.6657634 360.54528143 -340.30784854 355.237008 -337.9128418 349.93920898 C-335.23902133 343.99760994 -332.81952336 338.00746628 -330.58422852 331.88793945 C-328.20148583 325.37143786 -325.61205332 318.94256124 -323.00268555 312.51391602 C-321.29010555 308.27596283 -319.67079175 304.04973484 -318.2878418 299.68920898 C-346.81123452 298.89031728 -375.21024432 301.8056418 -403.2878418 306.68920898 Z " fill="#FCFCFC" transform="translate(791.287841796875,124.310791015625)"/>
<path d="M0 0 C20.73388114 0.02692174 20.73388114 0.02692174 26.63183594 4.50317383 C29.52649429 7.69472022 31.03431902 9.73448746 31.09667969 14.10864258 C30.74444947 18.92245551 29.50730513 21.64180241 26.06933594 25.19067383 C26.87371094 25.95379883 27.67808594 26.71692383 28.50683594 27.50317383 C32.02628689 31.19430531 32.42467985 34.08443218 32.35058594 39.13208008 C31.72429525 43.71617998 28.80809991 46.52398439 25.50683594 49.50317383 C21.56312798 52.23343318 18.55268882 52.31031398 13.87011719 52.28833008 C12.66162109 52.28510742 11.453125 52.28188477 10.20800781 52.27856445 C8.31405273 52.26599609 8.31405273 52.26599609 6.38183594 52.25317383 C4.47047852 52.24640625 4.47047852 52.24640625 2.52050781 52.23950195 C-0.6299297 52.22770256 -3.78027355 52.2112398 -6.93066406 52.19067383 C-6.95593145 44.94580832 -6.97349586 37.70095409 -6.9855957 30.45605469 C-6.99063763 27.98925349 -6.99747097 25.5224553 -7.00610352 23.05566406 C-7.01817531 19.51862854 -7.02389362 15.98163237 -7.02832031 12.44458008 C-7.0334816 11.33417862 -7.03864288 10.22377716 -7.04396057 9.07972717 C-7.0440361 8.05874435 -7.04411163 7.03776154 -7.04418945 5.98583984 C-7.04641006 5.08205093 -7.04863068 4.17826202 -7.05091858 3.24708557 C-6.79592031 -1.11351097 -3.65999749 0.03641204 0 0 Z M6.06933594 11.19067383 C6.06933594 14.16067383 6.06933594 17.13067383 6.06933594 20.19067383 C7.95652344 20.25254883 7.95652344 20.25254883 9.88183594 20.31567383 C10.58953125 20.33887695 11.29722656 20.36208008 12.02636719 20.38598633 C14.38293313 20.32321845 14.38293313 20.32321845 17.06933594 18.19067383 C17.56933594 15.69067383 17.56933594 15.69067383 17.06933594 13.19067383 C13.98045072 11.13141701 13.35997667 10.95163643 9.88183594 11.06567383 C8.62371094 11.10692383 7.36558594 11.14817383 6.06933594 11.19067383 Z M6.06933594 31.19067383 C6.06933594 34.82067383 6.06933594 38.45067383 6.06933594 42.19067383 C8.48246094 42.00504883 8.48246094 42.00504883 10.94433594 41.81567383 C11.84925781 41.74606445 12.75417969 41.67645508 13.68652344 41.60473633 C16.24875497 41.39499251 16.24875497 41.39499251 18.06933594 39.19067383 C18.40266927 36.19067383 18.40266927 36.19067383 18.06933594 33.19067383 C16.25740588 30.94742547 16.25740588 30.94742547 13.68652344 30.99536133 C12.78160156 31.01856445 11.87667969 31.04176758 10.94433594 31.06567383 C9.33558594 31.10692383 7.72683594 31.14817383 6.06933594 31.19067383 Z " fill="#F9F8F8" transform="translate(942.9306640625,440.809326171875)"/>
<path d="M0 0 C1.1290979 -0.00580078 1.1290979 -0.00580078 2.28100586 -0.01171875 C8.41595579 0.11541675 12.88763751 1.55869231 17.75 5.4375 C17.75 6.0975 17.75 6.7575 17.75 7.4375 C18.41 7.4375 19.07 7.4375 19.75 7.4375 C20.39757625 8.87421568 21.04299453 10.31190416 21.6875 11.75 C22.22697266 12.95076172 22.22697266 12.95076172 22.77734375 14.17578125 C26.04281365 21.76898235 25.73324188 31.41053069 23.625 39.375 C21.25226286 44.9678804 17.01078439 49.10702229 11.6875 51.9375 C4.5400416 54.67899089 -4.5987321 55.0267685 -11.6875 51.9375 C-17.09018425 48.64941475 -21.30949356 44.09286319 -23.421875 38.12890625 C-25.64218283 28.23177939 -25.41588024 17.37960849 -20.25 8.4375 C-14.65999769 1.86726031 -8.48861279 0.02986648 0 0 Z M-9.25 16.4375 C-12.21694715 22.68480421 -12.31012094 29.36872886 -10.0625 35.875 C-7.99003497 38.80503676 -6.3513924 40.60485904 -3.25 42.4375 C1.31510107 43.18451654 3.14733189 42.82411728 7.0625 40.3125 C11.68073579 35.37206171 12.20287948 30.52836274 12.07421875 23.9765625 C11.5672433 20.00627283 10.11289605 16.66178625 7.75 13.4375 C1.45353052 9.23985368 -4.76476715 10.32127339 -9.25 16.4375 Z " fill="#FCFCFC" transform="translate(640.25,440.5625)"/>
<path d="M0 0 C1.3303125 0.00773437 1.3303125 0.00773437 2.6875 0.015625 C3.574375 0.01046875 4.46125 0.0053125 5.375 0 C7.6875 0.265625 7.6875 0.265625 9.6875 2.265625 C9.91455078 4.14501953 9.91455078 4.14501953 9.8828125 6.3984375 C9.87314453 7.60693359 9.87314453 7.60693359 9.86328125 8.83984375 C9.84652344 9.68160156 9.82976563 10.52335937 9.8125 11.390625 C9.80347656 12.24011719 9.79445313 13.08960938 9.78515625 13.96484375 C9.76155647 16.06522384 9.72568483 18.16545944 9.6875 20.265625 C15.2975 20.265625 20.9075 20.265625 26.6875 20.265625 C26.67589844 18.90566406 26.66429687 17.54570312 26.65234375 16.14453125 C26.64296738 14.3723972 26.63386702 12.60026167 26.625 10.828125 C26.61662109 9.93029297 26.60824219 9.03246094 26.59960938 8.10742188 C26.59477539 6.82641602 26.59477539 6.82641602 26.58984375 5.51953125 C26.58198853 4.33339233 26.58198853 4.33339233 26.57397461 3.12329102 C26.6875 1.265625 26.6875 1.265625 27.6875 0.265625 C29.32980364 0.1410764 30.97802276 0.08993976 32.625 0.078125 C33.52089844 0.06394531 34.41679688 0.04976563 35.33984375 0.03515625 C37.6875 0.265625 37.6875 0.265625 39.6875 2.265625 C39.93473816 4.3596344 39.93473816 4.3596344 39.93041992 6.97485352 C39.93503487 8.44131065 39.93503487 8.44131065 39.93974304 9.93739319 C39.93255753 10.99574875 39.92537201 12.05410431 39.91796875 13.14453125 C39.91751053 14.22693588 39.91705231 15.30934052 39.9165802 16.42454529 C39.91355559 18.71525161 39.90566309 21.00595584 39.89331055 23.29663086 C39.87505785 26.81696803 39.87280078 30.33704234 39.87304688 33.85742188 C39.86813175 36.07812729 39.86230346 38.29883091 39.85546875 40.51953125 C39.85435593 41.57991104 39.8532431 42.64029083 39.85209656 43.73280334 C39.84571671 44.70728928 39.83933685 45.68177521 39.83276367 46.68579102 C39.82704597 47.97913109 39.82704597 47.97913109 39.82121277 49.29859924 C39.6875 51.265625 39.6875 51.265625 38.6875 52.265625 C34.68529347 52.40917617 30.69308317 52.30778903 26.6875 52.265625 C26.6875 45.335625 26.6875 38.405625 26.6875 31.265625 C21.0775 31.265625 15.4675 31.265625 9.6875 31.265625 C9.69910156 32.69777344 9.71070313 34.12992187 9.72265625 35.60546875 C9.73203255 37.47135287 9.74113292 39.33723839 9.75 41.203125 C9.75837891 42.14865234 9.76675781 43.09417969 9.77539062 44.06835938 C9.77861328 44.96748047 9.78183594 45.86660156 9.78515625 46.79296875 C9.79039307 47.62562256 9.79562988 48.45827637 9.80102539 49.31616211 C9.6875 51.265625 9.6875 51.265625 8.6875 52.265625 C6.68950428 52.36436316 4.68792842 52.39534299 2.6875 52.390625 C1.594375 52.39320313 0.50125 52.39578125 -0.625 52.3984375 C-3.3125 52.265625 -3.3125 52.265625 -4.3125 51.265625 C-4.41608779 49.74176269 -4.45101138 48.21315514 -4.45776367 46.68579102 C-4.46414352 45.71130508 -4.47052338 44.73681915 -4.47709656 43.73280334 C-4.47820938 42.67242355 -4.4793222 41.61204376 -4.48046875 40.51953125 C-4.48379715 39.43808334 -4.48712555 38.35663544 -4.49055481 37.24241638 C-4.49562877 34.94994534 -4.49796299 32.65746688 -4.49780273 30.36499023 C-4.49998845 26.84671933 -4.51813728 23.32876219 -4.53710938 19.81054688 C-4.54004328 17.58854275 -4.54202809 15.36653712 -4.54296875 13.14453125 C-4.55015427 12.08617569 -4.55733978 11.02782013 -4.56474304 9.93739319 C-4.56166641 8.9597551 -4.55858978 7.982117 -4.55541992 6.97485352 C-4.55684494 6.11183121 -4.55826996 5.2488089 -4.55973816 4.3596344 C-4.1886669 1.21680761 -3.09615618 0.35563956 0 0 Z " fill="#F9F9F9" transform="translate(827.3125,440.734375)"/>
<path d="M0 0 C6.80176874 8.41271397 6.78507213 17.72360712 6 28 C4.59360237 34.88066689 1.51641117 39.1440748 -3.8046875 43.625 C-10.37450048 47.73990066 -17.49307981 47.73456737 -25 47 C-28.29258199 46.10033675 -31.24681218 45.04126511 -34 43 C-34.70176622 41.68480177 -35.37354768 40.3526935 -36 39 C-36.639375 38.7525 -37.27875 38.505 -37.9375 38.25 C-40.64437537 36.60946947 -41.4767846 34.6946462 -42.4609375 31.7421875 C-44.09724662 23.41835413 -44.70082449 12.39175583 -40 5 C-35.13634136 -1.89960876 -30.91188683 -4.77202829 -22.75 -6.8125 C-14.30116877 -7.23494156 -6.52219643 -5.59706219 0 0 Z M-26 7 C-29.99122624 11.40411171 -30.00797952 17.30262591 -30 23 C-29.46147687 27.44097159 -28.53864829 32.05112642 -25 35 C-19.65108849 36.22761903 -16.10732814 36.31045797 -11 34 C-7.4157467 30.4157467 -6.89229774 24.93465036 -6.6875 20 C-6.82435375 15.04393907 -8.19133587 10.16736567 -11.3984375 6.32421875 C-16.08642878 2.44805035 -21.40945166 3.87008068 -26 7 Z " fill="#FAFAFA" transform="translate(806,447)"/>
<path d="M0 0 C0.89589844 -0.01417969 1.79179688 -0.02835937 2.71484375 -0.04296875 C5.0625 0.1875 5.0625 0.1875 7.0625 2.1875 C7.29596689 4.78931072 7.41188706 7.29279887 7.44140625 9.8984375 C7.45840073 10.66298248 7.4753952 11.42752747 7.49290466 12.21524048 C7.54611398 14.66424246 7.58633993 17.11322851 7.625 19.5625 C7.66900289 22.00454028 7.71582325 24.44645247 7.76780701 26.88833618 C7.79961698 28.40856332 7.82655214 29.9289022 7.84803772 31.4493103 C7.91364682 34.82449316 8.02020968 37.9582378 9.0625 41.1875 C10.66582791 41.26871924 12.27034026 41.32679134 13.875 41.375 C14.76832031 41.40980469 15.66164063 41.44460938 16.58203125 41.48046875 C19.09452016 41.3945405 19.09452016 41.3945405 20.82421875 39.86328125 C23.59786825 36.10966726 23.26032858 31.94786926 23.34375 27.4921875 C23.36215942 26.74413849 23.38056885 25.99608948 23.39953613 25.22537231 C23.47821069 22.0252305 23.54616212 18.8248833 23.61474609 15.62451172 C23.66633909 13.28862676 23.72362016 10.95293003 23.78125 8.6171875 C23.79482544 7.88805145 23.80840088 7.15891541 23.8223877 6.40768433 C23.94964351 1.30035649 23.94964351 1.30035649 25.0625 0.1875 C26.70480364 0.0629514 28.35302276 0.01181476 30 0 C30.89589844 -0.01417969 31.79179688 -0.02835937 32.71484375 -0.04296875 C35.0625 0.1875 35.0625 0.1875 37.0625 2.1875 C37.27472438 4.74739768 37.36647867 7.19623524 37.36328125 9.7578125 C37.36756638 10.51287079 37.3718515 11.26792908 37.37626648 12.04586792 C37.38201662 13.64808144 37.38250501 15.25032108 37.37817383 16.85253906 C37.37503888 19.28236788 37.39837485 21.71094908 37.42382812 24.140625 C37.42610384 25.70051931 37.42680335 27.26041687 37.42578125 28.8203125 C37.434991 29.53833038 37.44420074 30.25634827 37.45368958 30.99612427 C37.40051725 36.91763898 36.23402282 42.4638951 32.44921875 47.2109375 C25.07801928 53.07400651 18.39582161 54.02823001 9.0625 53.1875 C6.18349823 52.4259292 3.77946283 51.44148284 1.0625 50.1875 C1.0625 49.5275 1.0625 48.8675 1.0625 48.1875 C0.4025 48.1875 -0.2575 48.1875 -0.9375 48.1875 C-5.78848908 42.73710447 -6.65524114 38.95188352 -6.4609375 31.7890625 C-6.45623444 30.91349701 -6.45153137 30.03793152 -6.44668579 29.13583374 C-6.42546174 26.36056477 -6.36887196 23.58725312 -6.3125 20.8125 C-6.29598125 18.9257992 -6.28163619 17.03907803 -6.26953125 15.15234375 C-6.12026075 0.04390431 -6.12026075 0.04390431 0 0 Z " fill="#F3F3F3" transform="translate(885.9375,440.8125)"/>
<path d="M0 0 C0.87398437 -0.020625 1.74796875 -0.04125 2.6484375 -0.0625 C9.00185597 -0.10020575 16.02785091 0.3131339 21.09155273 4.59619141 C25.21634901 9.28138537 27.06457079 13.861222 26.875 20.12890625 C26.0459978 24.81794993 23.50066589 28.66860805 19.78515625 31.60546875 C13.81522846 35.22400266 9.4524174 35.25 2.5 35.25 C2.5 40.86 2.5 46.47 2.5 52.25 C-1.79 52.25 -6.08 52.25 -10.5 52.25 C-10.52464113 45.00512951 -10.5428318 37.76028318 -10.55493164 30.51538086 C-10.55997356 28.04857967 -10.56680691 25.58178148 -10.57543945 23.11499023 C-10.58751125 19.57795471 -10.59322956 16.04095855 -10.59765625 12.50390625 C-10.60281754 11.39350479 -10.60797882 10.28310333 -10.61329651 9.13905334 C-10.61337204 8.11807053 -10.61344757 7.09708771 -10.61352539 6.04516602 C-10.615746 5.14137711 -10.61796661 4.2375882 -10.62025452 3.30641174 C-10.32623845 -1.72140852 -3.86087959 0.02199931 0 0 Z M2.5 11.25 C2.5 15.54 2.5 19.83 2.5 24.25 C8.26887492 24.8047002 8.26887492 24.8047002 11.5 22.25 C11.5 21.59 11.5 20.93 11.5 20.25 C12.16 20.25 12.82 20.25 13.5 20.25 C13.91870553 17.91928121 13.91870553 17.91928121 13.5 15.25 C11.45047553 12.79335029 11.45047553 12.79335029 8.5 11.25 C6.52 11.25 4.54 11.25 2.5 11.25 Z " fill="#F8F8F8" transform="translate(728.5,440.75)"/>
<path d="M0 0 C2.171875 0.828125 2.171875 0.828125 5.296875 2.328125 C4.421875 10.078125 4.421875 10.078125 3.296875 12.328125 C2.306875 12.18375 1.316875 12.039375 0.296875 11.890625 C-0.65251953 11.75914062 -0.65251953 11.75914062 -1.62109375 11.625 C-3.04274391 11.42228816 -4.46207305 11.20276913 -5.87890625 10.96875 C-7.80939138 10.67229524 -9.75698591 10.49305204 -11.703125 10.328125 C-12.363125 10.988125 -13.023125 11.648125 -13.703125 12.328125 C-13.77931111 14.8422448 -13.77931111 14.8422448 -12.703125 17.328125 C-10.43010388 19.02619508 -10.43010388 19.02619508 -7.578125 20.265625 C4.26311734 26.26333759 4.26311734 26.26333759 5.9609375 31.296875 C6.92489661 37.12546497 6.52309794 41.32191698 3.296875 46.328125 C-2.78810141 52.09283949 -8.34081915 52.70429999 -16.45703125 52.59375 C-20.67084148 52.24893761 -25.5744144 51.4568356 -28.703125 48.328125 C-28.77518011 46.64203534 -28.78698568 44.95311841 -28.765625 43.265625 C-28.75660156 42.34652344 -28.74757813 41.42742187 -28.73828125 40.48046875 C-28.72667969 39.77019531 -28.71507812 39.05992187 -28.703125 38.328125 C-24.89654855 37.08128542 -23.3001817 37.91214136 -19.71875 39.625 C-16.12628994 40.87818374 -12.45660845 40.55793011 -8.703125 40.328125 C-8.03240622 38.45390722 -8.03240622 38.45390722 -7.703125 36.328125 C-10.53384466 32.52129511 -13.50009691 30.84099994 -17.765625 28.828125 C-21.81120403 26.91369921 -24.32768552 25.25276414 -26.703125 21.328125 C-27.94579132 17.60012605 -28.23215013 14.20029506 -27.703125 10.328125 C-21.86061382 -0.92411876 -11.79622154 -2.93200882 0 0 Z " fill="#F9F9F9" transform="translate(701.703125,441.671875)"/>
</svg>
